{"accessors" : [{"bufferView" : 0, "byteOffset" : 0, "componentType" : 5123, "count" : 1746, "type" : "SCALAR", "max" : [324], "min" : [0]}, {"bufferView" : 1, "byteOffset" : 0, "componentType" : 5126, "count" : 325, "type" : "VEC3", "max" : [-0.1362086981534958, -1.0353482961654663, -0.03022952377796173], "min" : [-0.8352178931236267, -1.7334825992584229, -0.7272276282310486], "name" : "POSITION"}, {"bufferView" : 1, "byteOffset" : 12, "componentType" : 5126, "count" : 325, "type" : "VEC3", "max" : [0.9987465739250183, 0.9955734610557556, 0.9984486699104309], "min" : [-0.998431384563446, -0.9991048574447632, -0.9929832816123962], "name" : "NORMAL"}, {"bufferView" : 1, "byteOffset" : 24, "componentType" : 5126, "count" : 325, "type" : "VEC2", "max" : [0.5497786998748779, 2.1573596000671387], "min" : [-0.5497786998748779, -0.12246096134185791], "name" : "TEXCOORD_0"}, {"bufferView" : 0, "byteOffset" : 3492, "componentType" : 5123, "count" : 4938, "type" : "SCALAR", "max" : [916], "min" : [0]}, {"bufferView" : 2, "byteOffset" : 0, "componentType" : 5126, "count" : 917, "type" : "VEC3", "max" : [0.3495630621910095, 1.4290776252746582, 1.9177581071853638], "min" : [-1.2242432832717896, -0.3496851623058319, -0.9469149708747864], "name" : "POSITION"}, {"bufferView" : 2, "byteOffset" : 12, "componentType" : 5126, "count" : 917, "type" : "VEC3", "max" : [0.9987559914588928, 0.9955734610557556, 0.9984486699104309], "min" : [-0.9987817406654358, -0.9991048574447632, -0.9868366122245789], "name" : "NORMAL"}, {"bufferView" : 2, "byteOffset" : 24, "componentType" : 5126, "count" : 917, "type" : "VEC2", "max" : [0.5497786998748779, 2.122100830078125], "min" : [-0.5497786998748779, -0.19153261184692383], "name" : "TEXCOORD_0"}, {"bufferView" : 0, "byteOffset" : 13368, "componentType" : 5123, "count" : 3162, "type" : "SCALAR", "max" : [546], "min" : [0]}, {"bufferView" : 3, "byteOffset" : 0, "componentType" : 5126, "count" : 547, "type" : "VEC3", "max" : [0.6862804293632507, 1.3911904096603394, 2.427133083343506], "min" : [-0.6983534097671509, -1.4451531171798706, 1.700316071510315], "name" : "POSITION"}, {"bufferView" : 3, "byteOffset" : 12, "componentType" : 5126, "count" : 547, "type" : "VEC3", "max" : [0.9987465739250183, 0.9955734610557556, 0.9984486699104309], "min" : [-0.998431384563446, -0.9991048574447632, -0.9929832816123962], "name" : "NORMAL"}, {"bufferView" : 3, "byteOffset" : 24, "componentType" : 5126, "count" : 547, "type" : "VEC2", "max" : [0.5497786998748779, 2.099557399749756], "min" : [-0.5497786998748779, -0.09955739974975586], "name" : "TEXCOORD_0"}, {"bufferView" : 0, "byteOffset" : 19692, "componentType" : 5123, "count" : 1296, "type" : "SCALAR", "max" : [431], "min" : [0]}, {"bufferView" : 4, "byteOffset" : 0, "componentType" : 5126, "count" : 432, "type" : "VEC3", "max" : [0.8364840149879456, 1.8836106061935425, 2.025892496109009], "min" : [-1.7194920778274536, -1.8767842054367065, -1.468780279159546], "name" : "POSITION"}, {"bufferView" : 4, "byteOffset" : 12, "componentType" : 5126, "count" : 432, "type" : "VEC3", "max" : [1.0000044107437134, 0.9949323534965515, 0.9605355858802795], "min" : [-1.0000044107437134, -0.9949323534965515, -0.9605355858802795], "name" : "NORMAL"}, {"bufferView" : 4, "byteOffset" : 24, "componentType" : 5126, "count" : 432, "type" : "VEC2", "max" : [1.232892394065857, 1.3141592741012573], "min" : [0.3354102075099945, 0.6858407258987427], "name" : "TEXCOORD_0"}, {"bufferView" : 0, "byteOffset" : 22284, "componentType" : 5123, "count" : 7302, "type" : "SCALAR", "max" : [1286], "min" : [0]}, {"bufferView" : 5, "byteOffset" : 0, "componentType" : 5126, "count" : 1287, "type" : "VEC3", "max" : [1.2677794694900513, 2.2903926372528076, 0.8286660313606262], "min" : [-2.1537466049194336, -2.161830425262451, -1.940527319908142], "name" : "POSITION"}, {"bufferView" : 5, "byteOffset" : 12, "componentType" : 5126, "count" : 1287, "type" : "VEC3", "max" : [0.9973903894424438, 0.9968224167823792, 0.9963026642799377], "min" : [-0.9974138736724854, -0.997793436050415, -0.9998289346694946], "name" : "NORMAL"}, {"bufferView" : 5, "byteOffset" : 24, "componentType" : 5126, "count" : 1287, "type" : "VEC2", "max" : [0.39269909262657166, 1.8008955717086792], "min" : [-0.39269909262657166, 0.1659570336341858], "name" : "TEXCOORD_0"}], "asset" : {"generator" : "Aspose.3D 24.6.0", "version" : "2.0"}, "buffers" : [{"uri" : "data:application/octet-stream;base64,", "byteLength" : 149168}], "bufferViews" : [{"buffer" : 0, "byteOffset" : 0, "byteLength" : 36888, "target" : 34963}, {"buffer" : 0, "byteOffset" : 36892, "byteLength" : 10400, "byteStride" : 32, "target" : 34962}, {"buffer" : 0, "byteOffset" : 47296, "byteLength" : 29344, "byteStride" : 32, "target" : 34962}, {"buffer" : 0, "byteOffset" : 76644, "byteLength" : 17504, "byteStride" : 32, "target" : 34962}, {"buffer" : 0, "byteOffset" : 94152, "byteLength" : 13824, "byteStride" : 32, "target" : 34962}, {"buffer" : 0, "byteOffset" : 107980, "byteLength" : 41184, "byteStride" : 32, "target" : 34962}], "materials" : [{"name" : "F_96fc5fae855b4d03a48796f237f57293", "pbrMetallicRoughness" : {"baseColorFactor" : [0, 0, 0.9999998807907104, 1], "metallicFactor" : 0, "roughnessFactor" : 0.20000000298023224}, "emissiveFactor" : [0, 0, 0], "alphaMode" : "OPAQUE", "doubleSided" : false}, {"name" : "F_704a0987a4a64cbe8676a3fced036d18", "pbrMetallicRoughness" : {"baseColorFactor" : [0.21586070954799652, 0.21586070954799652, 0.21586070954799652, 1], "metallicFactor" : 0, "roughnessFactor" : 0.20000000298023224}, "emissiveFactor" : [0, 0, 0], "alphaMode" : "OPAQUE", "doubleSided" : false}, {"name" : "F_d89f8f65c66341c19de19dd0436d05b8", "pbrMetallicRoughness" : {"baseColorFactor" : [0.9999998807907104, 0, 0, 1], "metallicFactor" : 0, "roughnessFactor" : 0.20000000298023224}, "emissiveFactor" : [0, 0, 0], "alphaMode" : "OPAQUE", "doubleSided" : false}, {"name" : "F_87d131b83e7c4b5495aaefe482c47490", "pbrMetallicRoughness" : {"baseColorFactor" : [0.9999998807907104, 0.9999998807907104, 0.6038272976875305, 1], "metallicFactor" : 0, "roughnessFactor" : 0.20000000298023224}, "emissiveFactor" : [0, 0, 0], "alphaMode" : "OPAQUE", "doubleSided" : false}, {"name" : "F_6f64dc8c9fea4ad9925c2994ad3ff387", "pbrMetallicRoughness" : {"baseColorFactor" : [0.9999998807907104, 0.9999998807907104, 0.9999998807907104, 1], "metallicFactor" : 0, "roughnessFactor" : 0.20000000298023224}, "emissiveFactor" : [0, 0, 0], "alphaMode" : "OPAQUE", "doubleSided" : false}], "meshes" : [{"primitives" : [{"attributes" : {"POSITION" : 1, "NORMAL" : 2, "TEXCOORD_0" : 3}, "indices" : 0, "material" : 0, "mode" : 4}, {"attributes" : {"POSITION" : 5, "NORMAL" : 6, "TEXCOORD_0" : 7}, "indices" : 4, "material" : 1, "mode" : 4}, {"attributes" : {"POSITION" : 9, "NORMAL" : 10, "TEXCOORD_0" : 11}, "indices" : 8, "material" : 2, "mode" : 4}, {"attributes" : {"POSITION" : 13, "NORMAL" : 14, "TEXCOORD_0" : 15}, "indices" : 12, "material" : 3, "mode" : 4}, {"attributes" : {"POSITION" : 17, "NORMAL" : 18, "TEXCOORD_0" : 19}, "indices" : 16, "material" : 4, "mode" : 4}], "name" : "?????????1"}], "nodes" : [{"matrix" : [10, 0, 0, 0, 0, 10, 0, 0, 0, 0, 10, 0, 0, 0, 0, 1], "mesh" : 0, "name" : "?????????1"}, {"children" : [0], "name" : "alanine"}], "scene" : 0, "scenes" : [{"nodes" : [1]}]}